<?xml version="1.0" encoding="utf-8"?>
<svg width="1000" height="1000" viewBox="0 0 1000 1000" xmlns="http://www.w3.org/2000/svg">
  <g opacity="0.56" transform="matrix(1.740297, 0, 0, 1.740297, -928.058716, -3274.622559)" style="">
    <path fill="#ed3926" d="M 672.73377066373 2148.75185438399 C 649.63377066373 2175.25185438399 629.83377066373 2204.65185438399 614.03377066373 2236.45185438399 C 654.53377066373 2321.15185438399 729.43377066373 2386.35185438399 820.53377066373 2413.95185438399 C 821.33377066373 2413.75185438399 822.13377066373 2413.45185438399 822.93377066373 2413.15185438399 C 857.13377066373 2373.95185438399 883.73377066373 2327.95185438399 900.53377066373 2277.55185438399 C 811.43377066373 2259.15185438399 732.33377066373 2213.05185438399 672.73377066373 2148.75185438399 Z"/>
  </g>
  <path fill="#127ac1" d="M 901.751 232.165 C 901.751 232.165 901.574 231.994 901.574 231.994 C 808.64 145.151 687.692 88.241 553.866 76.064 C 587.456 125.137 614.949 178.91 635.134 235.822 C 660.894 308.566 674.986 386.709 674.986 468.326 C 674.986 545.424 662.458 619.559 639.312 688.819 C 610.075 776.529 563.609 856.587 504.264 924.802 C 628.345 886.167 734.68 807.511 808.296 703.957 C 876.688 607.901 916.889 490.603 916.889 363.911 C 916.712 318.656 911.318 274.627 901.751 232.165 Z" style=""/>
  <path fill="#ed3926" d="M 553.866 76.064 C 536.113 74.496 518.362 73.629 500.435 73.629 C 344.503 73.629 203.02 134.362 97.902 233.382 C 97.73 234.258 97.559 235.299 97.382 236.172 C 88.158 277.412 83.112 320.223 83.112 364.083 C 83.112 454.923 103.645 540.726 140.544 617.467 C 168.038 562.126 202.496 510.788 242.7 464.846 C 343.117 349.982 479.9 267.669 635.134 235.822 C 614.772 178.91 587.456 125.308 553.866 76.064 Z" style=""/>
</svg>